# xmcd
#
# Track frame offsets: 
#        150
#        12710
#        25130
#        36990
#        53083
#        65860
#        77825
#        88985
#        105963
#        115865
#        131225
#        145183
#
# Disc length: 2161 seconds
#
# Revision: 0
# Processed by: cddbd v1.4PL0 Copyright (c) Steve Scherf et al.
# Submitted via: ExactAudioCopy v0.90b3
#
DISCID=aa086f0c
DTITLE=Mandy Barnett - I've Got A Right To Cry
DYEAR=1999
DGENRE=Country
TTITLE0=I've Got a Right to Cry
TTITLE1=Give Myself a Party
TTITLE2=Who (Who Will It Be)
TTITLE3=The Whispering Wind (Blows On By)
TTITLE4=Trademark
TTITLE5=Funny, Familiar, Forgotten Feelings
TTITLE6=Falling, Falling, Falling
TTITLE7=With My Eyes Wide Open I'm Dreaming
TTITLE8=I'm Gonna Change Everything
TTITLE9=Mistakes
TTITLE10=Ever True Evermore
TTITLE11=Don't Forget to Cry
EXTD=
EXTT0=
EXTT1=
EXTT2=
EXTT3=
EXTT4=
EXTT5=
EXTT6=
EXTT7=
EXTT8=
EXTT9=
EXTT10=
EXTT11=
PLAYORDER=
